<svg width="24" height="24" viewBox="0 0 24 24" fill="none" xmlns="http://www.w3.org/2000/svg">
<path d="M2 12C2 17.523 6.477 22 12 22C17.523 22 22 17.523 22 12C22 6.477 17.523 2 12 2C6.477 2 2 6.477 2 12Z" stroke="black" stroke-width="1.5" stroke-linecap="round" stroke-linejoin="round"/>
<path d="M13.0009 2.05C13.0009 2.05 16.0009 6 16.0009 12C16.0009 18 13.0009 21.95 13.0009 21.95M11.0009 21.95C11.0009 21.95 8.00086 18 8.00086 12C8.00086 6 11.0009 2.05 11.0009 2.05M2.63086 15.5H21.3709M2.63086 8.5H21.3709" stroke="black" stroke-width="1.5" stroke-linecap="round" stroke-linejoin="round"/>
</svg>
